<mxfile host="app.diagrams.net" modified="2022-05-22T21:51:57.799Z" agent="5.0 (Macintosh; Intel Mac OS X 10_15_7) AppleWebKit/537.36 (KHTML, like Gecko) Chrome/101.0.4951.64 Safari/537.36" etag="4ucsHgI2rR9139U7bctw" version="18.1.1" type="github">
  <diagram id="C5RBs43oDa-KdzZeNtuy" name="Page-1">
    <mxGraphModel dx="1503" dy="1074" grid="1" gridSize="10" guides="1" tooltips="1" connect="1" arrows="1" fold="1" page="1" pageScale="1" pageWidth="3300" pageHeight="4681" math="0" shadow="0">
      <root>
        <mxCell id="WIyWlLk6GJQsqaUBKTNV-0" />
        <mxCell id="WIyWlLk6GJQsqaUBKTNV-1" parent="WIyWlLk6GJQsqaUBKTNV-0" />
        <mxCell id="cXx6BBBNVSBuFL7b0Zpu-27" style="edgeStyle=orthogonalEdgeStyle;rounded=0;orthogonalLoop=1;jettySize=auto;html=1;entryX=0.5;entryY=1;entryDx=0;entryDy=0;" edge="1" parent="WIyWlLk6GJQsqaUBKTNV-1" source="WIyWlLk6GJQsqaUBKTNV-6" target="cXx6BBBNVSBuFL7b0Zpu-19">
          <mxGeometry relative="1" as="geometry" />
        </mxCell>
        <mxCell id="cXx6BBBNVSBuFL7b0Zpu-28" style="edgeStyle=orthogonalEdgeStyle;rounded=0;orthogonalLoop=1;jettySize=auto;html=1;exitX=1;exitY=0;exitDx=0;exitDy=0;entryX=0;entryY=0.5;entryDx=0;entryDy=0;" edge="1" parent="WIyWlLk6GJQsqaUBKTNV-1" source="WIyWlLk6GJQsqaUBKTNV-6" target="cXx6BBBNVSBuFL7b0Zpu-20">
          <mxGeometry relative="1" as="geometry" />
        </mxCell>
        <mxCell id="cXx6BBBNVSBuFL7b0Zpu-29" style="edgeStyle=orthogonalEdgeStyle;rounded=0;orthogonalLoop=1;jettySize=auto;html=1;exitX=1;exitY=1;exitDx=0;exitDy=0;entryX=0;entryY=0.5;entryDx=0;entryDy=0;" edge="1" parent="WIyWlLk6GJQsqaUBKTNV-1" source="WIyWlLk6GJQsqaUBKTNV-6" target="cXx6BBBNVSBuFL7b0Zpu-21">
          <mxGeometry relative="1" as="geometry" />
        </mxCell>
        <mxCell id="WIyWlLk6GJQsqaUBKTNV-6" value="Concept" style="rhombus;whiteSpace=wrap;html=1;shadow=0;fontFamily=Helvetica;fontSize=12;align=center;strokeWidth=1;spacing=6;spacingTop=-4;fillColor=#d80073;fontColor=#ffffff;strokeColor=#A50040;" parent="WIyWlLk6GJQsqaUBKTNV-1" vertex="1">
          <mxGeometry x="290" y="370" width="100" height="80" as="geometry" />
        </mxCell>
        <mxCell id="cXx6BBBNVSBuFL7b0Zpu-24" style="edgeStyle=orthogonalEdgeStyle;rounded=0;orthogonalLoop=1;jettySize=auto;html=1;entryX=0;entryY=0.5;entryDx=0;entryDy=0;exitX=0;exitY=1;exitDx=0;exitDy=0;" edge="1" parent="WIyWlLk6GJQsqaUBKTNV-1" source="cXx6BBBNVSBuFL7b0Zpu-1" target="cXx6BBBNVSBuFL7b0Zpu-22">
          <mxGeometry relative="1" as="geometry">
            <Array as="points">
              <mxPoint x="76" y="410" />
              <mxPoint x="90" y="410" />
              <mxPoint x="90" y="550" />
            </Array>
          </mxGeometry>
        </mxCell>
        <mxCell id="cXx6BBBNVSBuFL7b0Zpu-25" style="edgeStyle=orthogonalEdgeStyle;rounded=0;orthogonalLoop=1;jettySize=auto;html=1;exitX=0;exitY=0.5;exitDx=0;exitDy=0;entryX=0;entryY=0.5;entryDx=0;entryDy=0;" edge="1" parent="WIyWlLk6GJQsqaUBKTNV-1" source="cXx6BBBNVSBuFL7b0Zpu-1" target="cXx6BBBNVSBuFL7b0Zpu-23">
          <mxGeometry relative="1" as="geometry" />
        </mxCell>
        <mxCell id="cXx6BBBNVSBuFL7b0Zpu-26" style="edgeStyle=orthogonalEdgeStyle;rounded=0;orthogonalLoop=1;jettySize=auto;html=1;exitX=1;exitY=1;exitDx=0;exitDy=0;entryX=0;entryY=0.5;entryDx=0;entryDy=0;" edge="1" parent="WIyWlLk6GJQsqaUBKTNV-1" source="cXx6BBBNVSBuFL7b0Zpu-1" target="WIyWlLk6GJQsqaUBKTNV-6">
          <mxGeometry relative="1" as="geometry" />
        </mxCell>
        <mxCell id="cXx6BBBNVSBuFL7b0Zpu-32" style="edgeStyle=orthogonalEdgeStyle;rounded=0;orthogonalLoop=1;jettySize=auto;html=1;exitX=0;exitY=0;exitDx=0;exitDy=0;entryX=0;entryY=0.5;entryDx=0;entryDy=0;" edge="1" parent="WIyWlLk6GJQsqaUBKTNV-1" source="cXx6BBBNVSBuFL7b0Zpu-1" target="cXx6BBBNVSBuFL7b0Zpu-31">
          <mxGeometry relative="1" as="geometry">
            <Array as="points">
              <mxPoint x="180" y="316" />
              <mxPoint x="180" y="840" />
            </Array>
          </mxGeometry>
        </mxCell>
        <mxCell id="cXx6BBBNVSBuFL7b0Zpu-38" style="edgeStyle=orthogonalEdgeStyle;rounded=0;orthogonalLoop=1;jettySize=auto;html=1;entryX=0;entryY=0.5;entryDx=0;entryDy=0;" edge="1" parent="WIyWlLk6GJQsqaUBKTNV-1" source="cXx6BBBNVSBuFL7b0Zpu-1" target="cXx6BBBNVSBuFL7b0Zpu-33">
          <mxGeometry relative="1" as="geometry">
            <Array as="points">
              <mxPoint x="160" y="960" />
            </Array>
          </mxGeometry>
        </mxCell>
        <mxCell id="cXx6BBBNVSBuFL7b0Zpu-39" style="edgeStyle=orthogonalEdgeStyle;rounded=0;orthogonalLoop=1;jettySize=auto;html=1;entryX=0;entryY=0.5;entryDx=0;entryDy=0;" edge="1" parent="WIyWlLk6GJQsqaUBKTNV-1" source="cXx6BBBNVSBuFL7b0Zpu-1" target="cXx6BBBNVSBuFL7b0Zpu-34">
          <mxGeometry relative="1" as="geometry">
            <Array as="points">
              <mxPoint x="140" y="1090" />
            </Array>
          </mxGeometry>
        </mxCell>
        <mxCell id="cXx6BBBNVSBuFL7b0Zpu-1" value="NFT Lab 01" style="ellipse;whiteSpace=wrap;html=1;aspect=fixed;fillColor=#60a917;fontColor=#ffffff;strokeColor=#2D7600;" vertex="1" parent="WIyWlLk6GJQsqaUBKTNV-1">
          <mxGeometry x="60" y="300" width="110" height="110" as="geometry" />
        </mxCell>
        <mxCell id="cXx6BBBNVSBuFL7b0Zpu-14" value="animal" style="rounded=1;whiteSpace=wrap;html=1;fillColor=#1ba1e2;fontColor=#ffffff;strokeColor=#006EAF;" vertex="1" parent="WIyWlLk6GJQsqaUBKTNV-1">
          <mxGeometry x="50" y="90" width="120" height="50" as="geometry" />
        </mxCell>
        <mxCell id="cXx6BBBNVSBuFL7b0Zpu-15" value="anime" style="rounded=1;whiteSpace=wrap;html=1;fillColor=#1ba1e2;fontColor=#ffffff;strokeColor=#006EAF;" vertex="1" parent="WIyWlLk6GJQsqaUBKTNV-1">
          <mxGeometry x="230" y="90" width="120" height="50" as="geometry" />
        </mxCell>
        <mxCell id="cXx6BBBNVSBuFL7b0Zpu-16" value="celebs" style="rounded=1;whiteSpace=wrap;html=1;fillColor=#1ba1e2;fontColor=#ffffff;strokeColor=#006EAF;" vertex="1" parent="WIyWlLk6GJQsqaUBKTNV-1">
          <mxGeometry x="560" y="90" width="120" height="50" as="geometry" />
        </mxCell>
        <mxCell id="cXx6BBBNVSBuFL7b0Zpu-17" value="meme" style="rounded=1;whiteSpace=wrap;html=1;fillColor=#1ba1e2;fontColor=#ffffff;strokeColor=#006EAF;" vertex="1" parent="WIyWlLk6GJQsqaUBKTNV-1">
          <mxGeometry x="390" y="90" width="120" height="50" as="geometry" />
        </mxCell>
        <mxCell id="cXx6BBBNVSBuFL7b0Zpu-51" style="edgeStyle=orthogonalEdgeStyle;rounded=0;orthogonalLoop=1;jettySize=auto;html=1;entryX=0.5;entryY=1;entryDx=0;entryDy=0;exitX=0;exitY=0.25;exitDx=0;exitDy=0;" edge="1" parent="WIyWlLk6GJQsqaUBKTNV-1" source="cXx6BBBNVSBuFL7b0Zpu-19" target="cXx6BBBNVSBuFL7b0Zpu-14">
          <mxGeometry relative="1" as="geometry" />
        </mxCell>
        <mxCell id="cXx6BBBNVSBuFL7b0Zpu-52" style="edgeStyle=orthogonalEdgeStyle;rounded=0;orthogonalLoop=1;jettySize=auto;html=1;exitX=0.625;exitY=0;exitDx=0;exitDy=0;entryX=0.5;entryY=1;entryDx=0;entryDy=0;" edge="1" parent="WIyWlLk6GJQsqaUBKTNV-1" source="cXx6BBBNVSBuFL7b0Zpu-19" target="cXx6BBBNVSBuFL7b0Zpu-15">
          <mxGeometry relative="1" as="geometry" />
        </mxCell>
        <mxCell id="cXx6BBBNVSBuFL7b0Zpu-53" style="edgeStyle=orthogonalEdgeStyle;rounded=0;orthogonalLoop=1;jettySize=auto;html=1;exitX=1;exitY=0.25;exitDx=0;exitDy=0;entryX=0.5;entryY=1;entryDx=0;entryDy=0;" edge="1" parent="WIyWlLk6GJQsqaUBKTNV-1" source="cXx6BBBNVSBuFL7b0Zpu-19" target="cXx6BBBNVSBuFL7b0Zpu-17">
          <mxGeometry relative="1" as="geometry" />
        </mxCell>
        <mxCell id="cXx6BBBNVSBuFL7b0Zpu-54" style="edgeStyle=orthogonalEdgeStyle;rounded=0;orthogonalLoop=1;jettySize=auto;html=1;entryX=0.5;entryY=1;entryDx=0;entryDy=0;" edge="1" parent="WIyWlLk6GJQsqaUBKTNV-1" source="cXx6BBBNVSBuFL7b0Zpu-19" target="cXx6BBBNVSBuFL7b0Zpu-16">
          <mxGeometry relative="1" as="geometry" />
        </mxCell>
        <mxCell id="cXx6BBBNVSBuFL7b0Zpu-19" value="PFP" style="shape=hexagon;perimeter=hexagonPerimeter2;whiteSpace=wrap;html=1;fixedSize=1;fillColor=#0050ef;fontColor=#ffffff;strokeColor=#001DBC;" vertex="1" parent="WIyWlLk6GJQsqaUBKTNV-1">
          <mxGeometry x="170" y="180" width="120" height="60" as="geometry" />
        </mxCell>
        <mxCell id="cXx6BBBNVSBuFL7b0Zpu-20" value="DAO" style="shape=hexagon;perimeter=hexagonPerimeter2;whiteSpace=wrap;html=1;fixedSize=1;fillColor=#0050ef;fontColor=#ffffff;strokeColor=#001DBC;" vertex="1" parent="WIyWlLk6GJQsqaUBKTNV-1">
          <mxGeometry x="470" y="310" width="120" height="60" as="geometry" />
        </mxCell>
        <mxCell id="cXx6BBBNVSBuFL7b0Zpu-21" value="_ to earn" style="shape=hexagon;perimeter=hexagonPerimeter2;whiteSpace=wrap;html=1;fixedSize=1;fillColor=#0050ef;fontColor=#ffffff;strokeColor=#001DBC;" vertex="1" parent="WIyWlLk6GJQsqaUBKTNV-1">
          <mxGeometry x="480" y="450" width="120" height="60" as="geometry" />
        </mxCell>
        <mxCell id="cXx6BBBNVSBuFL7b0Zpu-64" style="edgeStyle=orthogonalEdgeStyle;rounded=0;orthogonalLoop=1;jettySize=auto;html=1;exitX=0;exitY=1;exitDx=0;exitDy=0;entryX=0;entryY=0.75;entryDx=0;entryDy=0;" edge="1" parent="WIyWlLk6GJQsqaUBKTNV-1" source="cXx6BBBNVSBuFL7b0Zpu-22" target="cXx6BBBNVSBuFL7b0Zpu-59">
          <mxGeometry relative="1" as="geometry">
            <Array as="points">
              <mxPoint x="300" y="570" />
              <mxPoint x="300" y="625" />
            </Array>
          </mxGeometry>
        </mxCell>
        <mxCell id="cXx6BBBNVSBuFL7b0Zpu-65" style="edgeStyle=orthogonalEdgeStyle;rounded=0;orthogonalLoop=1;jettySize=auto;html=1;exitX=0;exitY=0;exitDx=0;exitDy=0;entryX=0;entryY=0.5;entryDx=0;entryDy=0;" edge="1" parent="WIyWlLk6GJQsqaUBKTNV-1" source="cXx6BBBNVSBuFL7b0Zpu-22" target="cXx6BBBNVSBuFL7b0Zpu-58">
          <mxGeometry relative="1" as="geometry" />
        </mxCell>
        <mxCell id="cXx6BBBNVSBuFL7b0Zpu-66" style="edgeStyle=orthogonalEdgeStyle;rounded=0;orthogonalLoop=1;jettySize=auto;html=1;exitX=1;exitY=0;exitDx=0;exitDy=0;entryX=0;entryY=0.75;entryDx=0;entryDy=0;" edge="1" parent="WIyWlLk6GJQsqaUBKTNV-1" source="cXx6BBBNVSBuFL7b0Zpu-22" target="cXx6BBBNVSBuFL7b0Zpu-56">
          <mxGeometry relative="1" as="geometry" />
        </mxCell>
        <mxCell id="cXx6BBBNVSBuFL7b0Zpu-67" style="edgeStyle=orthogonalEdgeStyle;rounded=0;orthogonalLoop=1;jettySize=auto;html=1;exitX=1;exitY=0.5;exitDx=0;exitDy=0;entryX=0;entryY=0.5;entryDx=0;entryDy=0;" edge="1" parent="WIyWlLk6GJQsqaUBKTNV-1" source="cXx6BBBNVSBuFL7b0Zpu-22" target="cXx6BBBNVSBuFL7b0Zpu-57">
          <mxGeometry relative="1" as="geometry" />
        </mxCell>
        <mxCell id="cXx6BBBNVSBuFL7b0Zpu-22" value="Chain" style="rhombus;whiteSpace=wrap;html=1;shadow=0;fontFamily=Helvetica;fontSize=12;align=center;strokeWidth=1;spacing=6;spacingTop=-4;fillColor=#d80073;fontColor=#ffffff;strokeColor=#A50040;" vertex="1" parent="WIyWlLk6GJQsqaUBKTNV-1">
          <mxGeometry x="210" y="510" width="100" height="80" as="geometry" />
        </mxCell>
        <mxCell id="cXx6BBBNVSBuFL7b0Zpu-23" value="Language" style="rhombus;whiteSpace=wrap;html=1;shadow=0;fontFamily=Helvetica;fontSize=12;align=center;strokeWidth=1;spacing=6;spacingTop=-4;fillColor=#d80073;fontColor=#ffffff;strokeColor=#A50040;" vertex="1" parent="WIyWlLk6GJQsqaUBKTNV-1">
          <mxGeometry x="210" y="650" width="100" height="80" as="geometry" />
        </mxCell>
        <mxCell id="cXx6BBBNVSBuFL7b0Zpu-31" value="Price and Supply" style="rhombus;whiteSpace=wrap;html=1;shadow=0;fontFamily=Helvetica;fontSize=12;align=center;strokeWidth=1;spacing=6;spacingTop=-4;fillColor=#d80073;fontColor=#ffffff;strokeColor=#A50040;" vertex="1" parent="WIyWlLk6GJQsqaUBKTNV-1">
          <mxGeometry x="210" y="800" width="100" height="80" as="geometry" />
        </mxCell>
        <mxCell id="cXx6BBBNVSBuFL7b0Zpu-50" style="edgeStyle=orthogonalEdgeStyle;rounded=0;orthogonalLoop=1;jettySize=auto;html=1;entryX=0;entryY=0.5;entryDx=0;entryDy=0;" edge="1" parent="WIyWlLk6GJQsqaUBKTNV-1" source="cXx6BBBNVSBuFL7b0Zpu-33" target="cXx6BBBNVSBuFL7b0Zpu-41">
          <mxGeometry relative="1" as="geometry" />
        </mxCell>
        <mxCell id="cXx6BBBNVSBuFL7b0Zpu-33" value="server" style="rhombus;whiteSpace=wrap;html=1;shadow=0;fontFamily=Helvetica;fontSize=12;align=center;strokeWidth=1;spacing=6;spacingTop=-4;fillColor=#d80073;fontColor=#ffffff;strokeColor=#A50040;" vertex="1" parent="WIyWlLk6GJQsqaUBKTNV-1">
          <mxGeometry x="210" y="920" width="100" height="80" as="geometry" />
        </mxCell>
        <mxCell id="cXx6BBBNVSBuFL7b0Zpu-46" style="edgeStyle=orthogonalEdgeStyle;rounded=0;orthogonalLoop=1;jettySize=auto;html=1;entryX=0;entryY=0.5;entryDx=0;entryDy=0;" edge="1" parent="WIyWlLk6GJQsqaUBKTNV-1" source="cXx6BBBNVSBuFL7b0Zpu-34" target="cXx6BBBNVSBuFL7b0Zpu-35">
          <mxGeometry relative="1" as="geometry" />
        </mxCell>
        <mxCell id="cXx6BBBNVSBuFL7b0Zpu-34" value="Webside" style="rhombus;whiteSpace=wrap;html=1;shadow=0;fontFamily=Helvetica;fontSize=12;align=center;strokeWidth=1;spacing=6;spacingTop=-4;fillColor=#d80073;fontColor=#ffffff;strokeColor=#A50040;" vertex="1" parent="WIyWlLk6GJQsqaUBKTNV-1">
          <mxGeometry x="210" y="1050" width="100" height="80" as="geometry" />
        </mxCell>
        <mxCell id="cXx6BBBNVSBuFL7b0Zpu-47" style="edgeStyle=orthogonalEdgeStyle;rounded=0;orthogonalLoop=1;jettySize=auto;html=1;" edge="1" parent="WIyWlLk6GJQsqaUBKTNV-1" source="cXx6BBBNVSBuFL7b0Zpu-35" target="cXx6BBBNVSBuFL7b0Zpu-42">
          <mxGeometry relative="1" as="geometry" />
        </mxCell>
        <mxCell id="cXx6BBBNVSBuFL7b0Zpu-49" style="edgeStyle=orthogonalEdgeStyle;rounded=0;orthogonalLoop=1;jettySize=auto;html=1;exitX=0.625;exitY=1;exitDx=0;exitDy=0;entryX=0;entryY=0.5;entryDx=0;entryDy=0;" edge="1" parent="WIyWlLk6GJQsqaUBKTNV-1" source="cXx6BBBNVSBuFL7b0Zpu-35" target="cXx6BBBNVSBuFL7b0Zpu-45">
          <mxGeometry relative="1" as="geometry" />
        </mxCell>
        <mxCell id="cXx6BBBNVSBuFL7b0Zpu-35" value="Cloud native &lt;br&gt;25k+/m" style="shape=hexagon;perimeter=hexagonPerimeter2;whiteSpace=wrap;html=1;fixedSize=1;fillColor=#0050ef;fontColor=#ffffff;strokeColor=#001DBC;" vertex="1" parent="WIyWlLk6GJQsqaUBKTNV-1">
          <mxGeometry x="370" y="1060" width="120" height="60" as="geometry" />
        </mxCell>
        <mxCell id="cXx6BBBNVSBuFL7b0Zpu-41" value="IPFS,pinata.cloud" style="shape=hexagon;perimeter=hexagonPerimeter2;whiteSpace=wrap;html=1;fixedSize=1;fillColor=#0050ef;fontColor=#ffffff;strokeColor=#001DBC;" vertex="1" parent="WIyWlLk6GJQsqaUBKTNV-1">
          <mxGeometry x="370" y="930" width="120" height="60" as="geometry" />
        </mxCell>
        <mxCell id="cXx6BBBNVSBuFL7b0Zpu-42" value="First Web 2 then Web 3" style="rounded=1;whiteSpace=wrap;html=1;fillColor=#1ba1e2;fontColor=#ffffff;strokeColor=#006EAF;" vertex="1" parent="WIyWlLk6GJQsqaUBKTNV-1">
          <mxGeometry x="540" y="1065" width="140" height="50" as="geometry" />
        </mxCell>
        <mxCell id="cXx6BBBNVSBuFL7b0Zpu-45" value="First Web 3 then develop" style="rounded=1;whiteSpace=wrap;html=1;fillColor=#1ba1e2;fontColor=#ffffff;strokeColor=#006EAF;" vertex="1" parent="WIyWlLk6GJQsqaUBKTNV-1">
          <mxGeometry x="540" y="1150" width="140" height="50" as="geometry" />
        </mxCell>
        <mxCell id="cXx6BBBNVSBuFL7b0Zpu-56" value="eth" style="shape=hexagon;perimeter=hexagonPerimeter2;whiteSpace=wrap;html=1;fixedSize=1;fillColor=#0050ef;fontColor=#ffffff;strokeColor=#001DBC;" vertex="1" parent="WIyWlLk6GJQsqaUBKTNV-1">
          <mxGeometry x="340" y="460" width="70" height="50" as="geometry" />
        </mxCell>
        <mxCell id="cXx6BBBNVSBuFL7b0Zpu-57" value="op&lt;span style=&quot;color: rgba(0, 0, 0, 0); font-family: monospace; font-size: 0px; text-align: start;&quot;&gt;%3CmxGraphModel%3E%3Croot%3E%3CmxCell%20id%3D%220%22%2F%3E%3CmxCell%20id%3D%221%22%20parent%3D%220%22%2F%3E%3CmxCell%20id%3D%222%22%20value%3D%22eth%22%20style%3D%22shape%3Dhexagon%3Bperimeter%3DhexagonPerimeter2%3BwhiteSpace%3Dwrap%3Bhtml%3D1%3BfixedSize%3D1%3BfillColor%3D%230050ef%3BfontColor%3D%23ffffff%3BstrokeColor%3D%23001DBC%3B%22%20vertex%3D%221%22%20parent%3D%221%22%3E%3CmxGeometry%20x%3D%22350%22%20y%3D%22500%22%20width%3D%2270%22%20height%3D%2250%22%20as%3D%22geometry%22%2F%3E%3C%2FmxCell%3E%3C%2Froot%3E%3C%2FmxGraphModel%3E&lt;/span&gt;" style="shape=hexagon;perimeter=hexagonPerimeter2;whiteSpace=wrap;html=1;fixedSize=1;fillColor=#0050ef;fontColor=#ffffff;strokeColor=#001DBC;" vertex="1" parent="WIyWlLk6GJQsqaUBKTNV-1">
          <mxGeometry x="340" y="525" width="70" height="50" as="geometry" />
        </mxCell>
        <mxCell id="cXx6BBBNVSBuFL7b0Zpu-58" value="sol" style="shape=hexagon;perimeter=hexagonPerimeter2;whiteSpace=wrap;html=1;fixedSize=1;fillColor=#0050ef;fontColor=#ffffff;strokeColor=#001DBC;" vertex="1" parent="WIyWlLk6GJQsqaUBKTNV-1">
          <mxGeometry x="240" y="440" width="70" height="50" as="geometry" />
        </mxCell>
        <mxCell id="cXx6BBBNVSBuFL7b0Zpu-59" value="zk" style="shape=hexagon;perimeter=hexagonPerimeter2;whiteSpace=wrap;html=1;fixedSize=1;fillColor=#0050ef;fontColor=#ffffff;strokeColor=#001DBC;" vertex="1" parent="WIyWlLk6GJQsqaUBKTNV-1">
          <mxGeometry x="320" y="590" width="70" height="50" as="geometry" />
        </mxCell>
      </root>
    </mxGraphModel>
  </diagram>
</mxfile>
